<svg fill="none" height="940" width="987" xmlns="http://www.w3.org/2000/svg" xmlns:xlink="http://www.w3.org/1999/xlink"><filter id="b" color-interpolation-filters="sRGB" filterUnits="userSpaceOnUse" height="959.777" width="848.293" x="122.042" y="-27.377"><feFlood flood-opacity="0" result="BackgroundImageFix"/><feBlend in="SourceGraphic" in2="BackgroundImageFix" result="shape"/><feGaussianBlur result="effect1_foregroundBlur" stdDeviation="65"/></filter><filter id="d" color-interpolation-filters="sRGB" filterUnits="userSpaceOnUse" height="889.515" width="887.607" x="783.399" y="2.921"><feFlood flood-opacity="0" result="BackgroundImageFix"/><feBlend in="SourceGraphic" in2="BackgroundImageFix" result="shape"/><feGaussianBlur result="effect1_foregroundBlur" stdDeviation="65"/></filter><filter id="f" color-interpolation-filters="sRGB" filterUnits="userSpaceOnUse" height="896.689" width="972.644" x="409.274" y="21.794"><feFlood flood-opacity="0" result="BackgroundImageFix"/><feBlend in="SourceGraphic" in2="BackgroundImageFix" result="shape"/><feGaussianBlur result="effect1_foregroundBlur" stdDeviation="65"/></filter><linearGradient id="a"><stop offset="0" stop-color="#a2facf"/><stop offset="1" stop-color="#64acff"/></linearGradient><linearGradient id="c" gradientUnits="userSpaceOnUse" x1="788.528" x2="773.905" xlink:href="#a" y1="193.833" y2="745.539"/><linearGradient id="e" gradientUnits="userSpaceOnUse" x1="490.897" x2="3.02" xlink:href="#a" y1="527.556" y2="512.832"/><g opacity=".7"><g filter="url(#b)"><path d="M416.133 157.815c69.099-.692 371.02-45.543 374.174 141.515 3.154 187.059-258.44 560.863-389.866 423.346-131.427-137.518-92.075-96.641-95.229-283.7-3.154-187.058 41.823-280.468 110.921-281.161z" fill="#2188ff"/><path d="M416.133 157.815c69.099-.692 371.02-45.543 374.174 141.515 3.154 187.059-258.44 560.863-389.866 423.346-131.427-137.518-92.075-96.641-95.229-283.7-3.154-187.058 41.823-280.468 110.921-281.161z" fill="url(#c)" fill-opacity=".5"/></g><g filter="url(#d)" transform="matrix(-.01686 -.99986 .99995 -.01002 1227.2 447.678)"><ellipse fill="#a2facf" rx="264.782" ry="263.778"/><ellipse fill="url(#e)" rx="264.782" ry="263.778"/></g><ellipse fill="#c2a0fd" rx="299.742" ry="275.517" transform="matrix(.97106 -.23884 .34552 .93841 895.596 470.138)" filter="url(#f)" opacity=".98"/></g></svg>