<svg fill="none" height="1080" width="1464" xmlns="http://www.w3.org/2000/svg" xmlns:xlink="http://www.w3.org/1999/xlink"><filter id="c" color-interpolation-filters="sRGB" filterUnits="userSpaceOnUse" height="1110.17" width="857.854" x="-54.325" y="-21.994"><feFlood flood-opacity="0" result="BackgroundImageFix"/><feBlend in="SourceGraphic" in2="BackgroundImageFix" result="shape"/><feGaussianBlur result="effect1_foregroundBlur" stdDeviation="90"/></filter><filter id="e" color-interpolation-filters="sRGB" filterUnits="userSpaceOnUse" height="1022.29" width="897.938" x="619.981" y="15.901"><feFlood flood-opacity="0" result="BackgroundImageFix"/><feBlend in="SourceGraphic" in2="BackgroundImageFix" result="shape"/><feGaussianBlur result="effect1_foregroundBlur" stdDeviation="90"/></filter><filter id="g" color-interpolation-filters="sRGB" filterUnits="userSpaceOnUse" height="1031.26" width="984.64" x="238.531" y="39.506"><feFlood flood-opacity="0" result="BackgroundImageFix"/><feBlend in="SourceGraphic" in2="BackgroundImageFix" result="shape"/><feGaussianBlur result="effect1_foregroundBlur" stdDeviation="90"/></filter><linearGradient id="a"><stop offset="0" stop-color="#a2facf"/><stop offset="1" stop-color="#64acff"/></linearGradient><linearGradient id="d" gradientUnits="userSpaceOnUse" x1="621.687" x2="599.258" xlink:href="#a" y1="209.549" y2="899.352"/><linearGradient id="f" gradientUnits="userSpaceOnUse" x1="613.961" x2="4.058" xlink:href="#a" y1="537.9" y2="515.32"/><clipPath id="b"><path d="M0 0h1464v1080H0z"/></clipPath><g clip-path="url(#b)" opacity=".7"><g filter="url(#c)"><path d="M242 164.5c70.451-.866 378.284-56.964 381.5 177C626.716 575.463 360 1043 226 871s-93.878-120.874-97.093-354.838C125.691 282.199 171.549 165.366 242 164.5z" fill="#2188ff"/><path d="M242 164.5c70.451-.866 378.284-56.964 381.5 177C626.716 575.463 360 1043 226 871s-93.878-120.874-97.093-354.838C125.691 282.199 171.549 165.366 242 164.5z" fill="url(#d)" fill-opacity=".5"/></g><g filter="url(#e)" transform="rotate(-90.787 794.402 -263.656) skewX(-.083)"><ellipse fill="#a2facf" rx="331.16" ry="268.95"/><ellipse fill="url(#f)" rx="331.16" ry="268.95"/></g><ellipse fill="#c2a0fd" rx="309.981" ry="337.632" transform="rotate(-16.79 2246.29 -2198.622) skewX(-.083)" filter="url(#g)" opacity=".98"/></g></svg>