<svg xmlns="http://www.w3.org/2000/svg" viewBox="0 0 61.04 63.77">
<g>
    <g fill="#60bc95">
    <path
        d="M60.9 42.42c0-.1.09-.2.12-.3zM.76 32.58a31.72 31.72 0 0 0 38.91 26A27.31 27.31 0 1 1 61 21a31.55 31.55 0 0 0-60 1.81 21.9 21.9 0 0 0-.24 9.77z"
    />
    <path
        d="M60.4 44.59A27.43 27.43 0 0 1 48.72 56.4l-.46.29A32.56 32.56 0 0 1 0 33.37a31.52 31.52 0 0 0 60.81 10.48z"
    />
    <path
        d="M40.13 54.11c-14.76.22-25.26-10.11-25-22.57.16-8.67 3-13.48 6.9-17.81.79 14 25.19 3.27 31.46 4.49 5.78 1.12 7.49 4.58 7.49 4.58-.35-.75-.7-1.46-1.06-2.15a22.77 22.77 0 0 1 1.06 2.15 26.06 26.06 0 1 0 0 17.48 22.8 22.8 0 0 1-20.85 13.83z"
    />
    </g>
</g>
</svg>