<svg xmlns="http://www.w3.org/2000/svg" width="95" height="29" fill="none" viewBox="0 0 95 29"><path fill="#fff" d="M13.296 17.76C13.936 17.28 14.528 16.704 15.072 16.032C15.616 15.36 16.112 14.64 16.56 13.872C17.04 13.104 17.456 12.336 17.808 11.568C18.192 10.768 18.528 10 18.816 9.264C19.168 8.464 19.44 7.632 19.632 6.768C19.824 5.904 19.888 5.04 19.824 4.176C19.76 3.248 19.424 2.672 18.816 2.448C18.24 2.224 17.536 2.192 16.704 2.352C15.84 2.512 15.008 2.816 14.208 3.264C13.44 3.68 12.704 4.192 12 4.8C11.296 5.408 10.624 6.064 9.984 6.768C9.376 7.44 8.816 8.096 8.304 8.736C7.152 10.176 6.096 11.68 5.136 13.248C4.208 14.784 3.424 16.416 2.784 18.144C2.528 18.72 2.272 19.44 2.016 20.304C1.792 21.168 1.664 22.032 1.632 22.896C1.6 23.76 1.728 24.544 2.016 25.248C2.336 25.952 2.928 26.432 3.792 26.688C4.656 26.944 5.536 27.04 6.432 26.976C7.36 26.912 8.288 26.752 9.216 26.496C10.144 26.272 11.056 25.984 11.952 25.632C12.848 25.28 13.68 24.944 14.448 24.624C15.28 24.272 16.096 23.904 16.896 23.52C17.728 23.104 18.56 22.688 19.392 22.272L21.888 21.072C22.048 20.976 22.24 20.864 22.464 20.736C22.72 20.576 22.976 20.416 23.232 20.256C23.52 20.096 23.792 19.968 24.048 19.872C24.304 19.776 24.528 19.728 24.72 19.728C25.008 19.76 25.168 19.936 25.2 20.256C25.232 20.544 25.12 20.736 24.864 20.832C24.608 21.088 24.272 21.28 23.856 21.408C23.44 21.504 23.072 21.632 22.752 21.792C21.856 22.24 20.96 22.704 20.064 23.184C19.2 23.632 18.304 24.08 17.376 24.528C15.904 25.264 14.4 26 12.864 26.736C11.36 27.472 9.776 28.016 8.112 28.368C7.376 28.528 6.592 28.608 5.76 28.608C4.928 28.608 4.144 28.496 3.408 28.272C2.704 28.048 2.064 27.68 1.488 27.168C0.944 26.656 0.576 25.952 0.384 25.056C0.224 24.288 0.176 23.488 0.24 22.656C0.336 21.824 0.496 21.008 0.72 20.208C0.976 19.376 1.264 18.576 1.584 17.808C1.936 17.04 2.288 16.32 2.64 15.648C4.24 12.384 6.208 9.392 8.544 6.672C9.056 6.096 9.584 5.504 10.128 4.896C10.672 4.288 11.248 3.728 11.856 3.216C12.496 2.672 13.152 2.192 13.824 1.776C14.528 1.36 15.264 1.056 16.032 0.863999C16.704 0.639999 17.44 0.543999 18.24 0.575998C19.072 0.575998 19.776 0.831998 20.352 1.344C20.928 1.856 21.264 2.48 21.36 3.216C21.456 3.92 21.44 4.624 21.312 5.328C21.024 7.024 20.496 8.672 19.728 10.272C18.96 11.872 18.16 13.408 17.328 14.88C16.88 15.616 16.432 16.352 15.984 17.088C15.536 17.792 15.024 18.464 14.448 19.104C14.192 19.264 13.936 19.328 13.68 19.296C13.456 19.232 13.264 19.12 13.104 18.96C12.976 18.8 12.912 18.608 12.912 18.384C12.912 18.16 13.04 17.952 13.296 17.76ZM24.096 19.872C26.112 18.912 28.064 17.872 29.952 16.752C31.84 15.632 33.472 14.4 34.848 13.056L36.576 9.936C37.12 9.008 37.712 8.064 38.352 7.104C38.992 6.112 39.76 5.312 40.656 4.704C40.88 4.576 41.2 4.448 41.616 4.32C42.032 4.16 42.416 4.08 42.768 4.08C43.152 4.08 43.44 4.192 43.632 4.416C43.856 4.608 43.872 4.992 43.68 5.568C43.52 6.016 43.28 6.448 42.96 6.864C42.672 7.248 42.336 7.632 41.952 8.016C41.6 8.4 41.232 8.768 40.848 9.12C40.464 9.44 40.128 9.76 39.84 10.08C39.168 10.72 38.48 11.36 37.776 12C37.072 12.64 36.352 13.248 35.616 13.824C35.424 14.176 35.232 14.528 35.04 14.88C34.88 15.2 34.72 15.536 34.56 15.888C34.272 16.432 33.984 16.976 33.696 17.52C33.408 18.064 33.088 18.608 32.736 19.152C33.728 18.576 34.736 18.048 35.76 17.568C36.816 17.056 37.856 16.576 38.88 16.128C39.232 15.936 39.632 15.776 40.08 15.648C40.56 15.52 41.024 15.52 41.472 15.648C41.952 15.808 42.256 16.112 42.384 16.56C42.512 17.008 42.448 17.456 42.192 17.904C42 18.288 41.744 18.672 41.424 19.056C41.136 19.44 40.832 19.84 40.512 20.256C40.192 20.64 39.92 21.056 39.696 21.504C39.472 21.92 39.36 22.336 39.36 22.752C40.192 22.656 41.056 22.416 41.952 22.032C42.88 21.616 43.712 21.216 44.448 20.832C44.704 20.704 44.992 20.544 45.312 20.352C45.664 20.128 45.968 19.968 46.224 19.872C46.384 19.776 46.528 19.76 46.656 19.824C46.816 19.888 46.928 19.984 46.992 20.112C47.088 20.208 47.12 20.336 47.088 20.496C47.088 20.656 46.992 20.784 46.8 20.88C46.096 21.296 45.376 21.68 44.64 22.032C43.904 22.352 43.184 22.72 42.48 23.136C42.192 23.296 41.856 23.488 41.472 23.712C41.088 23.936 40.688 24.112 40.272 24.24C39.888 24.368 39.488 24.416 39.072 24.384C38.688 24.352 38.352 24.16 38.064 23.808C37.84 23.52 37.728 23.216 37.728 22.896C37.76 22.576 37.84 22.272 37.968 21.984C38.128 21.664 38.304 21.36 38.496 21.072C38.72 20.784 38.912 20.528 39.072 20.304C39.424 19.856 39.76 19.376 40.08 18.864C40.432 18.352 40.64 17.824 40.704 17.28C40.448 17.248 40.16 17.264 39.84 17.328C39.552 17.392 39.248 17.488 38.928 17.616C38.608 17.712 38.288 17.824 37.968 17.952C37.68 18.08 37.424 18.176 37.2 18.24C36.496 18.56 35.808 18.912 35.136 19.296C34.496 19.648 33.856 20.032 33.216 20.448C32.192 21.184 31.472 21.744 31.056 22.128C30.64 22.48 30.336 22.736 30.144 22.896C29.984 23.056 29.792 23.168 29.568 23.232C29.376 23.296 29.152 23.232 28.896 23.04C28.64 22.816 28.528 22.608 28.56 22.416C28.592 22.192 28.688 21.984 28.848 21.792C29.776 20.832 30.624 19.808 31.392 18.72C32.192 17.632 32.912 16.512 33.552 15.36C32.688 16.032 31.808 16.656 30.912 17.232C30.048 17.808 29.168 18.368 28.272 18.912C27.728 19.264 27.184 19.584 26.64 19.872C26.128 20.16 25.6 20.448 25.056 20.736C24.896 20.8 24.72 20.88 24.528 20.976C24.368 21.04 24.208 21.008 24.048 20.88C23.888 20.752 23.808 20.576 23.808 20.352C23.808 20.128 23.904 19.968 24.096 19.872ZM39.312 8.976C39.728 8.56 40.144 8.112 40.56 7.632C41.008 7.152 41.376 6.624 41.664 6.048C40.928 6.4 40.272 6.896 39.696 7.536C39.12 8.144 38.608 8.768 38.16 9.408L37.152 11.088C37.504 10.736 37.856 10.384 38.208 10.032C38.592 9.68 38.96 9.328 39.312 8.976ZM46.125 19.872C46.797 19.52 47.453 19.168 48.093 18.816C48.765 18.464 49.485 18.064 50.253 17.616C50.189 17.008 50.365 16.432 50.781 15.888C51.229 15.344 51.789 15.088 52.461 15.12C52.909 15.184 53.197 15.408 53.325 15.792C53.453 16.176 53.389 16.544 53.133 16.896C52.877 17.28 52.541 17.6 52.125 17.856C52.349 17.984 52.621 18.048 52.941 18.048C53.613 18.112 54.317 18 55.053 17.712C55.789 17.392 56.445 17.056 57.021 16.704C57.597 16.512 57.965 16.576 58.125 16.896C58.285 17.216 58.221 17.6 57.933 18.048C57.773 18.304 57.581 18.64 57.357 19.056C57.165 19.44 56.989 19.84 56.829 20.256C56.701 20.672 56.621 21.072 56.589 21.456C56.589 21.84 56.717 22.144 56.973 22.368C57.133 22.56 57.549 22.56 58.221 22.368C58.925 22.176 59.853 21.856 61.005 21.408C61.389 21.248 61.773 21.072 62.157 20.88C62.573 20.656 62.989 20.448 63.405 20.256C63.501 20.224 63.645 20.16 63.837 20.064C64.029 19.936 64.205 19.856 64.365 19.824C64.557 19.76 64.717 19.76 64.845 19.824C65.005 19.856 65.085 20.016 65.085 20.304C65.085 20.464 65.005 20.608 64.845 20.736C64.717 20.864 64.557 20.976 64.365 21.072C64.205 21.168 64.029 21.248 63.837 21.312C63.645 21.376 63.501 21.424 63.405 21.456L61.389 22.368C61.037 22.56 60.589 22.8 60.045 23.088C59.533 23.376 59.005 23.616 58.461 23.808C57.917 24 57.389 24.096 56.877 24.096C56.365 24.096 55.965 23.888 55.677 23.472C55.517 23.248 55.421 23.008 55.389 22.752C55.357 22.464 55.357 22.192 55.389 21.936C55.453 21.648 55.517 21.376 55.581 21.12C55.677 20.832 55.757 20.56 55.821 20.304L56.205 18.72C56.045 18.752 55.709 18.832 55.197 18.96C54.717 19.088 54.189 19.184 53.613 19.248C53.037 19.28 52.477 19.264 51.933 19.2C51.421 19.136 51.037 18.928 50.781 18.576C50.781 18.576 50.637 18.656 50.349 18.816C50.093 18.944 49.789 19.104 49.437 19.296C49.085 19.488 48.717 19.696 48.333 19.92C47.981 20.144 47.693 20.32 47.469 20.448C47.277 20.512 47.053 20.64 46.797 20.832C46.541 20.992 46.317 21.008 46.125 20.88C45.933 20.752 45.837 20.576 45.837 20.352C45.837 20.128 45.933 19.968 46.125 19.872ZM69.0656 17.568C69.1936 17.504 69.4816 17.376 69.9296 17.184C70.4096 16.992 70.8736 16.848 71.3216 16.752C71.7696 16.656 72.1536 16.656 72.4736 16.752C72.7936 16.816 72.9056 17.104 72.8096 17.616C72.7456 17.904 72.6016 18.192 72.3776 18.48C72.1856 18.768 72.0416 19.056 71.9456 19.344C71.7536 19.76 71.5616 20.272 71.3696 20.88C71.2096 21.488 71.2736 21.984 71.5616 22.368C72.1056 22.432 72.6976 22.368 73.3376 22.176C74.0096 21.984 74.6176 21.792 75.1616 21.6C75.3216 21.536 75.6256 21.376 76.0736 21.12C76.5216 20.864 76.9856 20.624 77.4656 20.4C77.9776 20.144 78.4416 19.968 78.8576 19.872C79.2736 19.744 79.5296 19.776 79.6256 19.968C79.7536 20.192 79.6736 20.432 79.3856 20.688C79.0976 20.944 78.7296 21.184 78.2816 21.408C77.8656 21.6 77.4336 21.792 76.9856 21.984C76.5376 22.144 76.2496 22.256 76.1216 22.32C75.4176 22.672 74.6976 23.024 73.9616 23.376C73.2576 23.696 72.5216 23.92 71.7536 24.048C71.0816 24.144 70.6176 24 70.3616 23.616C70.1056 23.232 69.9776 22.752 69.9776 22.176C69.9776 21.568 70.0576 20.928 70.2176 20.256C70.4096 19.552 70.6016 18.912 70.7936 18.336C70.0576 18.624 69.3376 18.896 68.6336 19.152C67.9296 19.376 67.2416 19.648 66.5696 19.968C65.9936 20.224 65.4176 20.512 64.8416 20.832C64.4896 20.928 64.2176 20.848 64.0256 20.592C63.8016 20.304 63.8816 20.064 64.2656 19.872L69.0656 17.568ZM74.6816 7.872C74.8416 7.456 75.0816 7.104 75.4016 6.816C75.7536 6.496 76.1376 6.24 76.5536 6.048C76.9696 5.856 77.4016 5.712 77.8496 5.616C78.3296 5.488 78.7776 5.392 79.1936 5.328C80.3456 5.264 81.4816 5.312 82.6016 5.472C82.7936 5.472 83.0016 5.504 83.2256 5.568C83.4816 5.632 83.5936 5.808 83.5616 6.096C83.5296 6.256 83.4496 6.4 83.3216 6.528C83.1936 6.624 83.0496 6.656 82.8896 6.624C81.9616 6.432 80.9856 6.368 79.9616 6.432C78.9696 6.464 78.0736 6.752 77.2736 7.296C76.9536 7.488 76.7296 7.744 76.6016 8.064C76.4736 8.384 76.2816 8.64 76.0256 8.832C75.7056 9.088 75.3696 9.088 75.0176 8.832C74.6656 8.576 74.5536 8.256 74.6816 7.872ZM78.7477 19.92C78.9718 19.792 79.3718 19.568 79.9478 19.248C80.5558 18.896 81.2118 18.544 81.9158 18.192C82.6518 17.84 83.3878 17.52 84.1238 17.232C84.8598 16.912 85.4998 16.736 86.0438 16.704C86.2358 16.64 86.4278 16.656 86.6198 16.752C86.8438 16.816 87.0038 16.912 87.0998 17.04C87.2918 17.36 87.3078 17.616 87.1478 17.808C86.9878 17.968 86.7798 18.112 86.5238 18.24C86.2678 18.368 85.9798 18.48 85.6598 18.576C85.3718 18.64 85.1798 18.736 85.0838 18.864C84.9238 19.056 84.9557 19.232 85.1797 19.392C85.4358 19.552 85.7398 19.68 86.0918 19.776C86.4438 19.872 86.7958 19.968 87.1478 20.064C87.4998 20.128 87.7238 20.192 87.8198 20.256C88.4598 20.608 88.8278 20.992 88.9238 21.408C89.0518 21.792 88.9878 22.192 88.7318 22.608L90.0278 21.936L93.8678 19.92C94.0918 19.792 94.2838 19.792 94.4438 19.92C94.6358 20.016 94.7318 20.192 94.7318 20.448C94.7318 20.704 94.5878 20.896 94.2998 21.024C94.0438 21.12 93.8038 21.216 93.5798 21.312C92.8118 21.664 92.0278 22.048 91.2278 22.464C90.4598 22.848 89.6918 23.248 88.9238 23.664C87.9958 24.112 87.0998 24.512 86.2358 24.864C85.4038 25.216 84.5398 25.392 83.6438 25.392C83.0038 25.392 82.4278 25.168 81.9158 24.72C81.4358 24.272 81.1958 23.76 81.1958 23.184C81.1638 22.896 81.2278 22.672 81.3878 22.512C81.5478 22.32 81.7398 22.208 81.9638 22.176C82.1878 22.112 82.3798 22.144 82.5398 22.272C82.7318 22.4 82.8438 22.608 82.8758 22.896C82.9398 23.536 83.2118 23.904 83.6918 24C84.2038 24.128 84.7958 24.112 85.4678 23.952C85.9158 23.792 86.3158 23.6 86.6678 23.376C87.0518 23.12 87.3238 22.88 87.4838 22.656C87.8998 22.208 88.0118 21.856 87.8198 21.6C87.6278 21.344 87.2918 21.136 86.8118 20.976C86.3638 20.816 85.8838 20.688 85.3718 20.592C84.8598 20.464 84.5078 20.32 84.3158 20.16C84.0278 19.904 83.8518 19.648 83.7878 19.392C83.7558 19.136 83.7718 18.88 83.8358 18.624C83.3558 18.816 82.8758 19.024 82.3958 19.248C81.9478 19.44 81.5318 19.616 81.1478 19.776C80.8598 19.936 80.5078 20.176 80.0918 20.496C79.7078 20.784 79.3558 20.928 79.0358 20.928C78.8758 20.96 78.7477 20.944 78.6517 20.88C78.5237 20.784 78.4597 20.688 78.4597 20.592C78.4277 20.464 78.4437 20.336 78.5077 20.208C78.5397 20.08 78.6197 19.984 78.7477 19.92Z"/></svg>